<?xml version="1.0" encoding="utf-8"?>
<!-- Generator: Adobe Illustrator 26.5.0, SVG Export Plug-In . SVG Version: 6.00 Build 0)  -->
<svg version="1.2" baseProfile="tiny" id="Calque_1"
	 xmlns="http://www.w3.org/2000/svg" xmlns:xlink="http://www.w3.org/1999/xlink" x="0px" y="0px" width="721.7px" height="213.4px"
	 viewBox="0 0 721.7 213.4" overflow="visible" xml:space="preserve">
<g>
	<path fill="#00FF85" d="M71.7,53c-2.6,18.5-16.1,29.7-34.1,29.7c-21.1,0-35.9-16.3-35.9-39.8c0-23.3,15.2-39.9,36.1-39.9
		c17.1,0,29.9,11.5,32.5,28.9h-4.8C62.9,17.1,52,7.5,37.9,7.5C19.3,7.5,6.7,21.7,6.7,42.6c0,21.2,12.4,35.4,31,35.4
		C53,78,64.8,67.9,66.9,53H71.7z"/>
	<path fill="#00FF85" d="M87.2,4h4.8v46.8c0,18.7,9.7,27.3,25.3,27.3c15.3,0,25.1-8.6,25.1-27.3V4h4.8v46.8
		c0,22.1-12.6,31.9-30,31.9c-17.5,0-30-9.7-30-31.9V4z"/>
	<path fill="#00FF85" d="M167.1,4h4.8v73.2h40.5v4.4h-45.3V4z"/>
	<path fill="#00FF85" d="M208,4h58.5v4.4h-26.8v73.2h-4.8V8.4H208V4z"/>
	<path fill="#00FF85" d="M275.3,4h4.8v46.8c0,18.7,9.7,27.3,25.3,27.3c15.3,0,25.1-8.6,25.1-27.3V4h4.8v46.8
		c0,22.1-12.7,31.9-30,31.9c-17.5,0-30-9.7-30-31.9V4z"/>
	<path fill="#00FF85" d="M397.7,43v0.7c7.8,0.3,11.8,5.5,11.8,14.9v23.1h-4.8v-23c0-9.4-4.2-12.8-15.1-12.8H360v35.8h-4.8V4h32
		c15.1,0,23.3,7.3,23.3,21.2C410.5,35,405.1,41.6,397.7,43z M360,8.4v33h28.1c10.9,0,17.5-5.8,17.5-16.4c0-11.3-6.3-16.6-17.5-16.6
		H360z"/>
	<path fill="#00FF85" d="M430.3,4h49.1v4.4h-44.2v30.8h41v4.2h-41v33.9H481v4.3h-50.7V4z"/>
	<path fill="#00FF85" d="M529,45.6l-11.7-3c-13.6-3.5-19.8-9.7-19.8-20c0-10.1,9.5-19.7,24.9-19.7c15.2,0,25.1,8.4,26.4,22h-4.8
		c-0.7-10.6-9.2-17.5-21.6-17.5c-13.5,0-19.9,8.3-19.9,15.4c0,7.8,4.8,12.6,15.4,15.3l12.4,3.1c13.9,3.4,20.5,9.7,20.5,19.5
		c0,13.2-10.8,22-26.8,22c-16.9,0-28.4-9.9-29.6-25.3h4.7c1.5,13.1,11,20.9,24.9,20.9c13.1,0,21.9-6.9,21.9-17.1
		C545.8,52.1,539.4,48.2,529,45.6z"/>
	<path fill="#00FF85" d="M11.6,114.5H11v74H6.1V111h7.9l47.3,72.4l0.2,1.9h0.7V111h4.8v77.6h-7.9l-47.3-72.2L11.6,114.5z"/>
	<path fill="#00FF85" d="M86.9,111h4.8v46.8c0,18.7,9.7,27.3,25.3,27.3c15.3,0,25.1-8.6,25.1-27.3V111h4.8v46.8
		c0,22.1-12.6,31.9-30,31.9c-17.5,0-30-9.7-30-31.9V111z"/>
	<path fill="#00FF85" d="M166.7,188.6V111h8.1l28.6,71.5l0.3,2.8h0.7l0.3-2.8l28.3-71.5h8.2v77.6h-4.8v-72.9h-0.7l-0.2,1.7
		l-28.4,71.3h-6.2l-28.6-71.3l-0.2-1.8h-0.7v73H166.7z"/>
	<path fill="#00FF85" d="M263.3,111h49.1v4.4h-44.2v30.8h41v4.2h-41v33.9H314v4.3h-50.7V111z M298.5,91.9l-8.5,10.8h-3.4v-1.3
		l6.5-10.7h5.4V91.9z"/>
	<path fill="#00FF85" d="M374.2,150v0.7c7.8,0.3,11.8,5.5,11.8,14.8v23.1h-4.8v-23c0-9.3-4.2-12.8-15.1-12.8h-29.6v35.8h-4.8V111h32
		c15.1,0,23.3,7.3,23.3,21.2C387,142,381.6,148.6,374.2,150z M336.5,115.4v33h28.1c10.9,0,17.5-5.8,17.5-16.4
		c0-11.3-6.3-16.6-17.5-16.6H336.5z"/>
	<path fill="#00FF85" d="M411.6,188.6h-4.8V111h4.8V188.6z"/>
	<path fill="#00FF85" d="M464.9,109.9c21.3,0,36.1,16.2,36.1,39.9c0,19.5-9.8,33.8-25.1,38.3v0.8h1.4c6,0,9,3.7,9,11.4v6.5h-5v-6.3
		c0-6.8-2.9-9.7-10.2-10.3l-6.5-0.6c-21.2-0.2-35.5-16.3-35.5-39.8C429.2,126.1,443.6,109.9,464.9,109.9z M465.2,185
		c18.4,0,30.9-13.5,30.9-35.1c0-21.6-12.8-35.4-31.1-35.4s-30.8,13.8-30.8,35.4S446.7,185,465.2,185z"/>
	<path fill="#00FF85" d="M516.4,111h4.8v46.8c0,18.7,9.7,27.3,25.3,27.3c15.3,0,25.1-8.6,25.1-27.3V111h4.8v46.8
		c0,22.1-12.7,31.9-30,31.9c-17.5,0-30-9.7-30-31.9V111z"/>
	<path fill="#00FF85" d="M596.3,111h49.1v4.4h-44.2v30.8h41v4.2h-41v33.9H647v4.3h-50.7V111z"/>
	<path fill="#00FF85" d="M695,152.6l-11.7-3c-13.6-3.5-19.8-9.7-19.8-20c0-10.1,9.5-19.7,24.9-19.7c15.2,0,25.1,8.4,26.4,22h-4.8
		c-0.7-10.6-9.2-17.5-21.6-17.5c-13.5,0-19.9,8.2-19.9,15.4c0,7.8,4.8,12.7,15.4,15.3l12.4,3.1c13.9,3.4,20.5,9.7,20.5,19.5
		c0,13.2-10.8,22-26.8,22c-16.9,0-28.4-9.9-29.6-25.3h4.7c1.5,13.1,11,20.9,24.9,20.9c13.1,0,21.9-6.9,21.9-17.1
		C711.8,159.1,705.4,155.2,695,152.6z"/>
</g>
<g>
</g>
<g>
</g>
<g>
</g>
<g>
</g>
<g>
</g>
<g>
</g>
<g>
</g>
<g>
</g>
<g>
</g>
<g>
</g>
<g>
</g>
<g>
</g>
<g>
</g>
<g>
</g>
<g>
</g>
</svg>
