<svg xmlns="http://www.w3.org/2000/svg" baseProfile="tiny" width="721.7" height="213.4" overflow="visible" fill="#00ff85" xmlns:v="https://vecta.io/nano"><path d="M71.7 53c-2.6 18.5-16.1 29.7-34.1 29.7-21.1 0-35.9-16.3-35.9-39.8C1.7 19.6 16.9 3 37.8 3c17.1 0 29.9 11.5 32.5 28.9h-4.8C62.9 17.1 52 7.5 37.9 7.5 19.3 7.5 6.7 21.7 6.7 42.6c0 21.2 12.4 35.4 31 35.4C53 78 64.8 67.9 66.9 53h4.8zM87.2 4H92v46.8c0 18.7 9.7 27.3 25.3 27.3 15.3 0 25.1-8.6 25.1-27.3V4h4.8v46.8c0 22.1-12.6 31.9-30 31.9-17.5 0-30-9.7-30-31.9V4zm79.9 0h4.8v73.2h40.5v4.4h-45.3V4zM208 4h58.5v4.4h-26.8v73.2h-4.8V8.4H208V4zm67.3 0h4.8v46.8c0 18.7 9.7 27.3 25.3 27.3 15.3 0 25.1-8.6 25.1-27.3V4h4.8v46.8c0 22.1-12.7 31.9-30 31.9-17.5 0-30-9.7-30-31.9V4zm122.4 39v.7c7.8.3 11.8 5.5 11.8 14.9v23.1h-4.8v-23c0-9.4-4.2-12.8-15.1-12.8H360v35.8h-4.8V4h32c15.1 0 23.3 7.3 23.3 21.2 0 9.8-5.4 16.4-12.8 17.8zM360 8.4v33h28.1c10.9 0 17.5-5.8 17.5-16.4 0-11.3-6.3-16.6-17.5-16.6H360zM430.3 4h49.1v4.4h-44.2v30.8h41v4.2h-41v33.9H481v4.3h-50.7V4zM529 45.6l-11.7-3c-13.6-3.5-19.8-9.7-19.8-20 0-10.1 9.5-19.7 24.9-19.7 15.2 0 25.1 8.4 26.4 22H544c-.7-10.6-9.2-17.5-21.6-17.5-13.5 0-19.9 8.3-19.9 15.4 0 7.8 4.8 12.6 15.4 15.3l12.4 3.1c13.9 3.4 20.5 9.7 20.5 19.5 0 13.2-10.8 22-26.8 22-16.9 0-28.4-9.9-29.6-25.3h4.7c1.5 13.1 11 20.9 24.9 20.9 13.1 0 21.9-6.9 21.9-17.1-.1-9.1-6.5-13-16.9-15.6zM11.6 114.5H11v74H6.1V111H14l47.3 72.4.2 1.9h.7V111H67v77.6h-7.9l-47.3-72.2-.2-1.9zm75.3-3.5h4.8v46.8c0 18.7 9.7 27.3 25.3 27.3 15.3 0 25.1-8.6 25.1-27.3V111h4.8v46.8c0 22.1-12.6 31.9-30 31.9-17.5 0-30-9.7-30-31.9V111zm79.8 77.6V111h8.1l28.6 71.5.3 2.8h.7l.3-2.8L233 111h8.2v77.6h-4.8v-72.9h-.7l-.2 1.7-28.4 71.3h-6.2l-28.6-71.3-.2-1.8h-.7v73h-4.7zm96.6-77.6h49.1v4.4h-44.2v30.8h41v4.2h-41v33.9H314v4.3h-50.7V111zm35.2-19.1l-8.5 10.8h-3.4v-1.3l6.5-10.7h5.4v1.2zm75.7 58.1v.7c7.8.3 11.8 5.5 11.8 14.8v23.1h-4.8v-23c0-9.3-4.2-12.8-15.1-12.8h-29.6v35.8h-4.8V111h32c15.1 0 23.3 7.3 23.3 21.2 0 9.8-5.4 16.4-12.8 17.8zm-37.7-34.6v33h28.1c10.9 0 17.5-5.8 17.5-16.4 0-11.3-6.3-16.6-17.5-16.6h-28.1zm75.1 73.2h-4.8V111h4.8v77.6zm53.3-78.7c21.3 0 36.1 16.2 36.1 39.9 0 19.5-9.8 33.8-25.1 38.3v.8h1.4c6 0 9 3.7 9 11.4v6.5h-5v-6.3c0-6.8-2.9-9.7-10.2-10.3l-6.5-.6c-21.2-.2-35.5-16.3-35.5-39.8.1-23.7 14.5-39.9 35.8-39.9zm.3 75.1c18.4 0 30.9-13.5 30.9-35.1s-12.8-35.4-31.1-35.4-30.8 13.8-30.8 35.4 12.5 35.1 31 35.1zm51.2-74h4.8v46.8c0 18.7 9.7 27.3 25.3 27.3 15.3 0 25.1-8.6 25.1-27.3V111h4.8v46.8c0 22.1-12.7 31.9-30 31.9-17.5 0-30-9.7-30-31.9V111zm79.9 0h49.1v4.4h-44.2v30.8h41v4.2h-41v33.9H647v4.3h-50.7V111zm98.7 41.6l-11.7-3c-13.6-3.5-19.8-9.7-19.8-20 0-10.1 9.5-19.7 24.9-19.7 15.2 0 25.1 8.4 26.4 22H710c-.7-10.6-9.2-17.5-21.6-17.5-13.5 0-19.9 8.2-19.9 15.4 0 7.8 4.8 12.7 15.4 15.3l12.4 3.1c13.9 3.4 20.5 9.7 20.5 19.5 0 13.2-10.8 22-26.8 22-16.9 0-28.4-9.9-29.6-25.3h4.7c1.5 13.1 11 20.9 24.9 20.9 13.1 0 21.9-6.9 21.9-17.1-.1-9.1-6.5-13-16.9-15.6z"/></svg>